<svg id="visual" viewBox="0 0 900 600" width="900" height="600" xmlns="http://www.w3.org/2000/svg" xmlns:xlink="http://www.w3.org/1999/xlink" version="1.1"><rect x="0" y="0" width="900" height="600" fill="#001220"></rect><defs><linearGradient id="grad1_0" x1="33.3%" y1="0%" x2="100%" y2="100%"><stop offset="20%" stop-color="#001220" stop-opacity="1"></stop><stop offset="80%" stop-color="#001220" stop-opacity="1"></stop></linearGradient></defs><defs><linearGradient id="grad2_0" x1="0%" y1="0%" x2="66.7%" y2="100%"><stop offset="20%" stop-color="#001220" stop-opacity="1"></stop><stop offset="80%" stop-color="#001220" stop-opacity="1"></stop></linearGradient></defs><g transform="translate(900, 0)"><path d="M0 486.7C-51.9 449.7 -103.8 412.6 -162.6 392.6C-221.5 372.7 -287.2 370 -338.7 338.7C-390.2 307.4 -427.4 247.5 -449.7 186.3C-472 125.1 -479.4 62.5 -486.7 0L0 0Z" fill="#FBAE3C"></path></g><g transform="translate(0, 600)"><path d="M0 -486.7C50.6 -451.9 101.3 -417.1 165.7 -400C230.2 -382.9 308.4 -383.5 344.2 -344.2C379.9 -304.8 373.2 -225.5 389.9 -161.5C406.6 -97.5 446.7 -48.7 486.7 0L0 0Z" fill="#FBAE3C"></path></g></svg>