<svg id="visual" viewBox="0 0 30 26" width="30" height="26" xmlns="http://www.w3.org/2000/svg" xmlns:xlink="http://www.w3.org/1999/xlink" version="1.1"><rect x="0" y="0" width="30" height="26" fill="#002233"></rect><path d="M0 12L0.7 11.8C1.3 11.7 2.7 11.3 4.2 10.8C5.7 10.3 7.3 9.7 8.8 10.5C10.3 11.3 11.7 13.7 13 15C14.3 16.3 15.7 16.7 17 15.8C18.3 15 19.7 13 21.2 12.2C22.7 11.3 24.3 11.7 25.8 12.3C27.3 13 28.7 14 29.3 14.5L30 15L30 27L29.3 27C28.7 27 27.3 27 25.8 27C24.3 27 22.7 27 21.2 27C19.7 27 18.3 27 17 27C15.7 27 14.3 27 13 27C11.7 27 10.3 27 8.8 27C7.3 27 5.7 27 4.2 27C2.7 27 1.3 27 0.7 27L0 27Z" fill="#fff" stroke-linecap="round" stroke-linejoin="miter"></path></svg>